<svg xmlns="http://www.w3.org/2000/svg" width="960" height="540" viewBox="0 0 960 540" role="img" aria-labelledby="title desc">
<title id="title">Protecting data in transit</title><desc id="desc">Encryption transforms readable content into ciphertext. Conceptual encryption flow; implementation and key management matter.</desc>
<defs><pattern id="grid" width="32" height="32" patternUnits="userSpaceOnUse"><circle cx="1" cy="1" r="1" fill="#223747"/></pattern><marker id="arrow" viewBox="0 0 10 10" refX="9" refY="5" markerWidth="7" markerHeight="7" orient="auto-start-reverse"><path d="M0 0L10 5L0 10Z" fill="#69ddce"/></marker></defs>
<rect width="960" height="540" rx="16" fill="#101923"/><rect width="960" height="540" rx="16" fill="url(#grid)"/>
<g font-family="system-ui,-apple-system,Segoe UI,sans-serif"><text x="40" y="47" font-size="13" fill="#ff727b" letter-spacing="3">NAJX / FIELD NOTES</text><text x="40" y="99" font-size="32" fill="#edf4fa" font-weight="650">Protecting data in transit</text><text x="40" y="135" font-size="18" fill="#adc0d0" >Encryption transforms readable content into ciphertext.</text>
<rect x="40" y="230" width="230" height="130" rx="12" fill="#192735" stroke="#385166"/><path d="M60 252h24" stroke="#69ddce" stroke-width="4"/><text x="60" y="292" font-size="24" fill="#edf4fa" >Plaintext</text><text x="60" y="326" font-size="18" fill="#adc0d0" >Readable message</text><path d="M270 292L365 292" fill="none" stroke="#69ddce" stroke-width="3" marker-end="url(#arrow)"/><rect x="380" y="190" width="200" height="210" rx="12" fill="#192735" stroke="#385166"/><path d="M400 212h24" stroke="#ff727b" stroke-width="4"/><text x="400" y="252" font-size="24" fill="#edf4fa" >Encrypt</text><text x="400" y="286" font-size="18" fill="#adc0d0" >Key + algorithm</text><path d="M580 292L675 292" fill="none" stroke="#69ddce" stroke-width="3" marker-end="url(#arrow)"/><rect x="690" y="230" width="230" height="130" rx="12" fill="#192735" stroke="#385166"/><path d="M710 252h24" stroke="#69ddce" stroke-width="4"/><text x="710" y="292" font-size="24" fill="#edf4fa" >Ciphertext</text><text x="710" y="326" font-size="18" fill="#adc0d0" >Protected content</text><text x="400" y="365" font-size="24" fill="#ff727b" >{  key  }</text>
<path d="M40 484H920" stroke="#385166"/><text x="40" y="515" font-size="16" fill="#adc0d0" >Conceptual encryption flow; implementation and key management matter.</text><text x="920" y="515" font-size="20" fill="#ff727b" text-anchor="end">↗</text></g></svg>
