<svg xmlns="http://www.w3.org/2000/svg" width="960" height="540" viewBox="0 0 960 540" role="img" aria-labelledby="title desc">
<title id="title">Cryptography is a moving target</title><desc id="desc">Algorithms, keys and implementation must evolve together.</desc>
<defs><pattern id="grid" width="32" height="32" patternUnits="userSpaceOnUse"><circle cx="1" cy="1" r="1" fill="#223747"/></pattern><marker id="arrow" viewBox="0 0 10 10" refX="9" refY="5" markerWidth="7" markerHeight="7" orient="auto-start-reverse"><path d="M0 0L10 5L0 10Z" fill="#69ddce"/></marker></defs>
<rect width="960" height="540" rx="16" fill="#101923"/><rect width="960" height="540" rx="16" fill="url(#grid)"/>
<g font-family="system-ui,-apple-system,Segoe UI,sans-serif"><text x="40" y="47" font-size="13" fill="#ff727b" letter-spacing="3">NAJX / FIELD NOTES</text><text x="40" y="99" font-size="32" fill="#edf4fa" font-weight="650">Cryptography is a moving target</text><text x="40" y="135" font-size="18" fill="#adc0d0" >Algorithms, keys and implementation must evolve together.</text>
<rect x="40" y="208" width="280" height="148" rx="12" fill="#192735" stroke="#385166"/><path d="M60 230h24" stroke="#8bbcff" stroke-width="4"/><text x="60" y="270" font-size="24" fill="#edf4fa" >Algorithms</text><text x="60" y="304" font-size="18" fill="#adc0d0" >Choose carefully</text><rect x="340" y="208" width="280" height="148" rx="12" fill="#192735" stroke="#385166"/><path d="M360 230h24" stroke="#69ddce" stroke-width="4"/><text x="360" y="270" font-size="24" fill="#edf4fa" >Key management</text><text x="360" y="304" font-size="18" fill="#adc0d0" >Protect the secrets</text><rect x="640" y="208" width="280" height="148" rx="12" fill="#192735" stroke="#385166"/><path d="M660 230h24" stroke="#ff727b" stroke-width="4"/><text x="660" y="270" font-size="24" fill="#edf4fa" >Implementation</text><text x="660" y="304" font-size="18" fill="#adc0d0" >Review and update</text><text x="480" y="427" font-size="24" fill="#edf4fa" text-anchor="middle">Security depends on the whole system.</text>
<path d="M40 484H920" stroke="#385166"/><text x="40" y="515" font-size="16" fill="#adc0d0" >Original vector illustration · najx.dev</text><text x="920" y="515" font-size="20" fill="#ff727b" text-anchor="end">↗</text></g></svg>
