<svg xmlns="http://www.w3.org/2000/svg" width="960" height="540" viewBox="0 0 960 540" role="img" aria-labelledby="title desc">
<title id="title">Learning is an iterative process</title><desc id="desc">Small attempts create the feedback that makes the next one better.</desc>
<defs><pattern id="grid" width="32" height="32" patternUnits="userSpaceOnUse"><circle cx="1" cy="1" r="1" fill="#223747"/></pattern><marker id="arrow" viewBox="0 0 10 10" refX="9" refY="5" markerWidth="7" markerHeight="7" orient="auto-start-reverse"><path d="M0 0L10 5L0 10Z" fill="#69ddce"/></marker></defs>
<rect width="960" height="540" rx="16" fill="#101923"/><rect width="960" height="540" rx="16" fill="url(#grid)"/>
<g font-family="system-ui,-apple-system,Segoe UI,sans-serif"><text x="40" y="47" font-size="13" fill="#ff727b" letter-spacing="3">NAJX / FIELD NOTES</text><text x="40" y="99" font-size="32" fill="#edf4fa" font-weight="650">Learning is an iterative process</text><text x="40" y="135" font-size="18" fill="#adc0d0" >Small attempts create the feedback that makes the next one better.</text>
<rect x="40" y="212" width="240" height="135" rx="12" fill="#192735" stroke="#385166"/><path d="M60 234h24" stroke="#69ddce" stroke-width="4"/><text x="60" y="274" font-size="24" fill="#edf4fa" >Try</text><text x="60" y="308" font-size="18" fill="#adc0d0" >Make a first attempt</text><rect x="360" y="212" width="240" height="135" rx="12" fill="#192735" stroke="#385166"/><path d="M380 234h24" stroke="#69ddce" stroke-width="4"/><text x="380" y="274" font-size="24" fill="#edf4fa" >Learn</text><text x="380" y="308" font-size="18" fill="#adc0d0" >Observe what happens</text><rect x="680" y="212" width="240" height="135" rx="12" fill="#192735" stroke="#385166"/><path d="M700 234h24" stroke="#69ddce" stroke-width="4"/><text x="700" y="274" font-size="24" fill="#edf4fa" >Adjust</text><text x="700" y="308" font-size="18" fill="#adc0d0" >Use the feedback</text><path d="M283 279L351 279" fill="none" stroke="#69ddce" stroke-width="3" marker-end="url(#arrow)"/><path d="M603 279L671 279" fill="none" stroke="#69ddce" stroke-width="3" marker-end="url(#arrow)"/><path d="M800 360V417H160V361" fill="none" stroke="#69ddce" stroke-width="3" marker-end="url(#arrow)"/>
<path d="M40 484H920" stroke="#385166"/><text x="40" y="515" font-size="16" fill="#adc0d0" >Original vector illustration · najx.dev</text><text x="920" y="515" font-size="20" fill="#ff727b" text-anchor="end">↗</text></g></svg>
